<?xml version="1.0" encoding="UTF-8" ?>
<!DOCTYPE svg PUBLIC "-//W3C//DTD SVG 1.1//EN" "http://www.w3.org/Graphics/SVG/1.1/DTD/svg11.dtd">
<svg width="98pt" height="160pt" viewBox="0 0 98 160" version="1.1" xmlns="http://www.w3.org/2000/svg">
<g id="#ed4d3cff">
<path fill="#ed4d3c" opacity="1.00" d=" M 11.44 83.42 C 17.45 72.99 28.19 65.27 40.19 63.57 C 51.26 61.92 63.51 63.96 72.27 71.29 C 72.26 69.19 72.26 67.10 72.26 65.01 C 78.89 64.99 85.52 65.00 92.15 65.00 C 92.16 92.69 92.16 120.38 92.15 148.07 C 85.52 148.08 78.89 148.08 72.27 148.07 C 72.26 145.99 72.26 143.91 72.28 141.83 C 57.18 153.50 33.47 152.66 19.46 139.50 C 12.44 133.20 7.79 124.42 6.38 115.11 C 4.77 104.40 5.93 92.92 11.44 83.42 M 42.48 82.69 C 34.65 84.68 28.17 91.20 26.41 99.11 C 24.57 107.42 25.52 117.09 31.46 123.61 C 40.47 133.81 58.51 133.71 67.36 123.35 C 72.51 117.58 73.71 109.32 72.72 101.89 C 72.00 96.00 69.02 90.38 64.28 86.76 C 58.24 81.91 49.85 80.87 42.48 82.69 Z" />
</g>
</svg>
