<?xml version="1.0" encoding="UTF-8" ?>
<!DOCTYPE svg PUBLIC "-//W3C//DTD SVG 1.1//EN" "http://www.w3.org/Graphics/SVG/1.1/DTD/svg11.dtd">
<svg width="95pt" height="160pt" viewBox="0 0 95 160" version="1.1" xmlns="http://www.w3.org/2000/svg">
<g id="#fbc403ff">
<path fill="#fbc403" opacity="1.00" d=" M 25.53 67.25 C 39.28 60.62 57.22 61.53 69.26 71.29 C 69.26 69.20 69.26 67.10 69.26 65.01 C 75.89 64.99 82.52 65.00 89.15 65.00 C 89.16 92.69 89.16 120.38 89.15 148.07 C 82.52 148.08 75.89 148.08 69.26 148.07 C 69.26 145.98 69.26 143.89 69.27 141.81 C 60.93 148.61 49.40 150.80 38.87 149.66 C 25.00 148.31 12.51 138.90 6.75 126.31 C 2.43 116.84 1.81 105.95 3.76 95.81 C 6.14 83.62 14.43 72.80 25.53 67.25 M 39.52 82.68 C 31.70 84.65 25.21 91.15 23.42 99.05 C 21.57 107.35 22.49 117.00 28.40 123.54 C 37.38 133.79 55.44 133.74 64.32 123.39 C 69.52 117.60 70.73 109.27 69.70 101.79 C 68.97 95.91 65.97 90.31 61.22 86.71 C 55.20 81.91 46.85 80.88 39.52 82.68 Z" />
</g>
</svg>
