<?xml version="1.0" encoding="UTF-8" ?>
<!DOCTYPE svg PUBLIC "-//W3C//DTD SVG 1.1//EN" "http://www.w3.org/Graphics/SVG/1.1/DTD/svg11.dtd">
<svg width="187pt" height="160pt" viewBox="0 0 187 160" version="1.1" xmlns="http://www.w3.org/2000/svg">
<g id="#4c90f6ff">
<path fill="#4c90f6" opacity="1.00" d=" M 23.93 12.05 C 33.93 6.49 46.03 6.04 57.04 8.26 C 69.21 10.63 80.30 17.49 88.41 26.79 C 83.40 31.60 78.40 36.43 73.37 41.22 C 68.56 35.45 61.87 31.64 54.96 28.93 C 47.38 26.27 38.04 26.30 31.57 31.61 C 24.71 37.22 24.83 48.87 31.39 54.68 C 41.13 63.48 54.26 66.53 65.75 72.27 C 77.40 77.05 87.52 86.69 91.06 98.99 C 93.33 107.49 93.22 116.72 90.40 125.08 C 86.30 137.12 75.46 146.15 63.27 149.23 C 52.56 151.91 41.16 151.42 30.54 148.56 C 18.72 145.47 8.24 138.30 0.00 129.42 L 0.00 124.30 C 4.72 120.07 9.47 115.87 14.18 111.63 C 19.98 119.61 27.80 126.56 37.41 129.41 C 46.04 132.08 56.28 132.17 63.99 126.94 C 73.67 120.35 73.84 104.45 65.00 97.07 C 52.87 86.30 35.90 84.27 22.46 75.70 C 15.29 70.77 9.10 63.79 6.75 55.26 C 4.97 48.77 4.73 41.83 6.21 35.26 C 8.44 25.45 15.25 16.98 23.93 12.05 Z" />
</g>
<g id="#ed4d3cff">
<path fill="#ed4d3c" opacity="1.00" d=" M 129.81 64.40 C 143.75 61.00 159.65 63.75 170.41 73.62 C 179.60 81.53 184.81 93.47 184.92 105.54 C 163.36 109.64 141.79 113.74 120.23 117.88 C 126.57 130.91 145.07 135.29 156.66 126.72 C 159.44 125.26 160.72 122.06 162.94 120.20 C 168.76 122.91 174.39 126.01 180.13 128.88 C 174.59 138.23 165.50 145.55 154.88 148.22 C 143.63 151.31 131.14 150.41 120.64 145.24 C 109.72 139.67 101.44 129.10 98.84 117.10 C 96.50 106.14 97.67 94.16 103.44 84.41 C 109.21 74.69 118.75 67.06 129.81 64.40 M 126.53 86.62 C 121.30 90.44 118.38 96.68 117.69 103.03 C 132.59 100.23 147.48 97.39 162.36 94.55 C 159.90 89.66 155.94 85.34 150.69 83.47 C 142.79 80.65 133.28 81.36 126.53 86.62 Z" />
</g>
</svg>
