<?xml version="1.0" encoding="UTF-8" ?>
<!DOCTYPE svg PUBLIC "-//W3C//DTD SVG 1.1//EN" "http://www.w3.org/Graphics/SVG/1.1/DTD/svg11.dtd">
<svg width="209pt" height="160pt" viewBox="0 0 209 160" version="1.1" xmlns="http://www.w3.org/2000/svg">
<g id="#ed4d3cff">
<path fill="#ed4d3c" opacity="1.00" d=" M 134.52 10.00 C 141.14 10.00 147.76 10.00 154.39 10.00 C 154.38 30.41 154.41 50.82 154.38 71.23 C 166.41 59.70 188.06 60.23 199.29 72.65 C 204.88 79.00 206.31 87.82 206.47 96.00 C 206.54 113.35 206.48 130.70 206.50 148.06 C 199.87 148.06 193.25 148.06 186.63 148.06 C 186.59 131.41 186.68 114.75 186.59 98.11 C 186.42 92.84 184.94 86.80 180.27 83.74 C 173.61 79.99 164.61 81.96 159.67 87.68 C 154.96 92.86 154.31 100.27 154.38 106.96 C 154.39 120.66 154.39 134.36 154.38 148.06 C 147.76 148.06 141.14 148.06 134.52 148.06 C 134.51 102.04 134.52 56.02 134.52 10.00 Z" />
</g>
<g id="#4c90f6ff">
<path fill="#4c90f6" opacity="1.00" d=" M 27.38 71.24 C 33.84 64.95 43.17 63.00 51.91 62.99 C 51.91 69.21 51.92 75.42 51.90 81.64 C 44.76 81.76 36.55 82.77 31.70 88.64 C 27.07 94.71 27.36 102.81 27.39 110.06 C 27.39 122.70 27.39 135.35 27.39 148.00 C 20.76 148.00 14.14 148.00 7.51 148.00 C 7.51 120.31 7.51 92.62 7.52 64.93 C 14.14 64.92 20.76 64.92 27.39 64.93 C 27.40 67.03 27.39 69.14 27.38 71.24 Z" />
</g>
<g id="#3bb15dff">
<path fill="#3bb15d" opacity="1.00" d=" M 87.10 63.82 C 101.11 61.26 116.72 64.91 126.97 75.11 C 122.95 80.15 118.92 85.19 114.89 90.23 C 106.46 79.97 88.87 78.86 79.50 88.51 C 72.81 94.96 71.33 105.21 73.46 113.94 C 75.49 122.21 82.52 129.02 90.90 130.62 C 99.47 132.37 109.33 129.78 114.88 122.76 C 118.92 127.82 122.97 132.87 127.01 137.93 C 122.87 142.60 117.01 145.06 111.32 147.26 C 102.67 150.49 93.04 150.75 84.11 148.55 C 69.02 144.75 56.76 131.74 53.71 116.50 C 51.96 107.61 52.43 98.16 55.74 89.68 C 60.95 76.54 73.08 66.19 87.10 63.82 Z" />
</g>
</svg>
