<?xml version="1.0" encoding="UTF-8" ?>
<!DOCTYPE svg PUBLIC "-//W3C//DTD SVG 1.1//EN" "http://www.w3.org/Graphics/SVG/1.1/DTD/svg11.dtd">
<svg width="1280pt" height="406pt" viewBox="0 0 1280 406" version="1.1" xmlns="http://www.w3.org/2000/svg">
<g id="#4c90f6ff">
<path fill="#4c90f6" opacity="1.00" d=" M 77.55 21.32 C 98.67 14.51 121.51 14.42 143.19 18.36 C 159.57 21.67 175.87 26.84 189.97 36.00 C 203.65 44.57 216.75 54.43 227.02 67.00 C 214.08 79.44 201.15 91.89 188.19 104.31 C 182.98 98.70 177.91 92.79 171.41 88.61 C 164.06 83.75 156.38 79.36 148.44 75.54 C 132.50 67.99 113.82 65.66 96.78 70.65 C 85.06 74.11 74.27 82.39 69.91 94.07 C 66.28 104.11 66.08 115.63 70.33 125.51 C 73.66 133.30 79.64 139.66 86.42 144.59 C 100.31 155.09 116.16 162.58 132.35 168.78 C 147.64 174.85 162.67 181.55 177.48 188.72 C 184.38 192.10 190.95 196.17 197.00 200.92 C 214.42 214.82 228.94 233.47 234.39 255.40 C 239.44 275.71 239.29 297.45 233.38 317.56 C 226.19 341.90 208.24 362.31 186.01 374.18 C 159.48 388.34 128.13 390.13 98.82 386.17 C 74.98 382.48 51.26 374.64 31.65 360.28 C 20.38 352.26 9.09 343.96 0.00 333.45 L 0.00 317.97 C 11.90 307.30 23.84 296.68 35.73 286.01 C 39.63 292.93 45.32 298.55 50.80 304.20 C 59.06 312.44 68.13 320.10 78.66 325.27 C 92.11 331.94 106.83 336.51 121.94 336.70 C 138.10 337.03 155.33 333.73 167.80 322.78 C 177.64 314.49 182.75 301.67 183.10 288.98 C 184.05 275.31 179.38 261.21 169.70 251.39 C 161.57 243.26 151.89 236.82 141.80 231.37 C 131.93 226.01 121.30 222.28 110.86 218.21 C 97.60 212.96 84.44 207.47 71.47 201.56 C 55.77 194.32 42.05 183.12 31.33 169.60 C 22.05 158.32 16.29 144.41 13.94 130.05 C 10.62 109.72 12.36 88.08 21.73 69.50 C 33.09 47.00 53.46 29.00 77.55 21.32 Z" />
<path fill="#4c90f6" opacity="1.00" d=" M 806.16 182.36 C 822.63 165.92 846.89 160.92 869.40 161.00 C 869.41 177.09 869.41 193.18 869.40 209.27 C 852.60 209.43 834.23 211.63 821.12 223.16 C 809.46 233.97 806.73 250.81 806.22 265.96 C 806.08 304.31 806.20 342.65 806.16 381.00 C 789.06 381.00 771.96 381.00 754.86 381.00 C 754.86 309.32 754.85 237.65 754.86 165.97 C 771.96 165.97 789.06 165.97 806.15 165.97 C 806.16 171.44 806.15 176.90 806.16 182.36 Z" />
</g>
<g id="#ed4d3cff">
<path fill="#ed4d3c" opacity="1.00" d=" M 1080.86 24.00 C 1097.96 24.00 1115.05 24.00 1132.15 24.00 C 1132.16 76.87 1132.15 129.73 1132.16 182.59 C 1141.71 173.07 1154.02 166.46 1167.18 163.57 C 1191.00 158.31 1217.66 161.54 1237.45 176.57 C 1248.59 184.41 1256.71 196.05 1260.87 208.96 C 1265.40 222.46 1266.64 236.83 1266.61 251.00 C 1266.60 294.46 1266.63 337.93 1266.59 381.39 C 1249.51 381.40 1232.44 381.36 1215.36 381.41 C 1215.23 338.62 1215.37 295.82 1215.29 253.02 C 1215.19 242.07 1212.80 230.74 1206.29 221.74 C 1202.40 216.26 1196.29 212.66 1189.79 211.20 C 1179.26 208.84 1167.78 209.95 1158.27 215.21 C 1149.68 220.00 1142.40 227.37 1138.36 236.40 C 1133.14 247.80 1132.10 260.57 1132.15 272.95 C 1132.16 309.10 1132.16 345.24 1132.15 381.38 C 1115.05 381.40 1097.96 381.39 1080.86 381.38 C 1080.86 262.26 1080.86 143.13 1080.86 24.00 Z" />
<path fill="#ed4d3c" opacity="1.00" d=" M 315.61 171.56 C 339.54 160.24 367.33 158.48 393.02 164.05 C 423.56 170.72 450.00 192.00 464.68 219.38 C 473.14 235.19 477.13 253.14 477.49 271.00 C 421.89 281.63 366.28 292.22 310.69 302.87 C 318.32 318.53 333.14 330.15 349.84 334.77 C 360.22 337.66 371.30 337.94 381.85 335.85 C 391.99 333.84 401.36 328.81 409.24 322.20 C 413.94 318.42 416.52 312.81 420.45 308.34 C 435.22 316.17 450.22 323.58 465.07 331.27 C 460.95 339.64 454.49 346.49 448.19 353.26 C 438.18 363.77 425.97 372.23 412.28 377.21 C 389.56 386.63 364.07 388.10 340.05 383.46 C 326.06 380.70 312.52 375.33 300.70 367.31 C 277.47 351.53 260.33 326.68 254.92 299.02 C 249.93 273.56 252.09 246.17 263.73 222.74 C 274.84 200.68 293.32 182.27 315.61 171.56 M 323.16 225.17 C 311.86 235.09 305.56 249.72 304.21 264.54 C 342.55 257.23 380.89 249.93 419.23 242.63 C 415.77 235.58 411.24 228.98 405.37 223.72 C 394.77 213.98 380.13 209.82 365.97 209.80 C 350.46 209.41 334.63 214.54 323.16 225.17 Z" />
</g>
<g id="#fbc403ff">
<path fill="#fbc403" opacity="1.00" d=" M 575.15 163.16 C 597.43 158.90 621.04 160.81 641.93 169.89 C 649.49 172.63 656.09 177.25 662.21 182.39 C 662.22 176.93 662.22 171.47 662.21 166.01 C 679.32 166.02 696.43 165.94 713.54 166.05 C 713.51 237.67 713.46 309.30 713.57 380.92 C 696.45 381.17 679.33 380.96 662.22 381.03 C 662.21 375.57 662.21 370.11 662.22 364.65 C 658.21 368.29 653.96 371.80 648.93 373.93 C 636.98 379.22 624.51 383.76 611.45 385.20 C 591.49 387.44 570.75 384.98 552.40 376.56 C 523.46 363.19 501.22 336.08 494.00 304.99 C 488.92 283.08 489.13 259.82 495.03 238.09 C 505.12 200.92 537.08 170.24 575.15 163.16 M 590.57 210.80 C 570.29 214.05 552.20 228.86 545.63 248.40 C 540.72 263.03 540.52 279.14 544.22 294.06 C 548.49 311.14 561.27 325.63 577.47 332.38 C 589.89 337.57 603.90 338.35 617.05 335.86 C 636.51 332.17 653.66 317.76 660.15 298.97 C 664.90 285.27 665.28 270.22 662.45 256.07 C 659.58 241.89 651.20 228.96 639.32 220.69 C 625.41 210.63 607.24 208.03 590.57 210.80 Z" />
</g>
<g id="#3bb15dff">
<path fill="#3bb15d" opacity="1.00" d=" M 925.97 173.92 C 946.86 162.53 971.44 159.23 994.89 161.88 C 1011.53 163.69 1027.50 169.66 1042.00 177.89 C 1048.80 181.64 1054.17 187.32 1060.08 192.24 C 1049.83 205.49 1039.21 218.47 1028.81 231.61 C 1026.36 228.31 1023.83 224.94 1020.36 222.65 C 1009.75 215.83 997.77 210.44 984.99 209.90 C 968.29 208.73 950.90 214.02 938.78 225.83 C 926.51 237.05 920.14 253.63 919.78 270.08 C 918.93 287.08 923.55 304.95 935.33 317.64 C 946.02 329.79 961.91 336.84 978.04 337.16 C 993.36 338.01 1008.73 333.03 1020.95 323.84 C 1024.09 321.52 1026.20 318.19 1028.84 315.37 C 1039.20 328.55 1049.83 341.51 1060.11 354.75 C 1054.95 360.16 1049.35 365.31 1042.59 368.65 C 1029.17 375.52 1015.17 381.79 1000.19 384.27 C 983.27 387.12 965.73 386.45 949.10 382.19 C 917.90 374.22 891.52 350.87 878.23 321.75 C 867.94 298.81 866.15 272.57 870.91 248.04 C 877.00 216.75 898.13 189.15 925.97 173.92 Z" />
</g>
</svg>
