<?xml version="1.0"?>
<svg xmlns="http://www.w3.org/2000/svg" xmlns:xlink="http://www.w3.org/1999/xlink" version="1.1" viewBox="0 0 192 192" width="50px" height="50px"><g fill="none" fill-rule="nonzero" stroke="none" stroke-width="1" stroke-linecap="butt" stroke-linejoin="miter" stroke-miterlimit="10" stroke-dasharray="" stroke-dashoffset="0" font-family="none" font-weight="none" font-size="none" text-anchor="none" style="mix-blend-mode: normal"><path d="M0,192v-192h192v192z" fill="none"/><g fill="#397af2"><g id="surface1"><path d="M80.64,11.52c-36.09,0 -65.28,29.19 -65.28,65.28c0,36.09 29.19,65.28 65.28,65.28c12.885,0 24.81,-3.78 34.92,-10.2l47.16,47.16l16.32,-16.32l-46.56,-46.44c8.37,-10.98 13.44,-24.585 13.44,-39.48c0,-36.09 -29.19,-65.28 -65.28,-65.28zM80.64,26.88c27.645,0 49.92,22.275 49.92,49.92c0,27.645 -22.275,49.92 -49.92,49.92c-27.645,0 -49.92,-22.275 -49.92,-49.92c0,-27.645 22.275,-49.92 49.92,-49.92z"/></g></g></g></svg>
